<svg aria-hidden="true" style="position: absolute; width: 0; height: 0; overflow: hidden;" version="1.1" xmlns="http://www.w3.org/2000/svg" xmlns:xlink="http://www.w3.org/1999/xlink">
<defs>
    <symbol id="icon-facebook" viewBox="0 0 32 32">
      <title>facebook-logo-1</title>
      <path fill="#fff" d="M23.999 0.007l-4.15-0.007c-4.662 0-7.675 3.091-7.675 7.875v3.631h-4.172c-0.361 0-0.652 0.292-0.652 0.653v5.261c0 0.361 0.292 0.652 0.652 0.652h4.172v13.275c0 0.361 0.292 0.652 0.652 0.652h5.444c0.361 0 0.652-0.292 0.652-0.652v-13.275h4.878c0.361 0 0.652-0.292 0.652-0.652l0.002-5.261c0-0.173-0.069-0.339-0.191-0.461-0.118-0.118-0.281-0.191-0.462-0.191 0 0 0 0 0 0h-4.88v-3.078c0-1.479 0.353-2.23 2.28-2.23l2.795-0.001c0.36 0 0.652-0.292 0.652-0.652v-4.885c0-0.36-0.292-0.652-0.651-0.652z"></path>
    </symbol> 

  <symbol id="icon-instagram" viewBox="0 0 32 32">
    <title>instagram-big-logo-1</title>
    <path fill="#fff" d="M27.655 0h-23.311c-2.396 0-4.345 1.949-4.345 4.345v23.311c0 2.396 1.949 4.345 4.345 4.345h23.311c2.396 0 4.345-1.949 4.345-4.345v-23.311c0-2.396-1.949-4.345-4.345-4.345zM16 23.817c-3.946 0-7.157-3.21-7.157-7.157s3.21-7.157 7.157-7.157 7.157 3.21 7.157 7.157c0 3.946-3.21 7.157-7.157 7.157zM29.291 11.378h-6.466c-1.632-1.954-4.086-3.199-6.825-3.199s-5.193 1.245-6.825 3.199h-6.466v-6.214c0-1.579 1.285-2.864 2.864-2.864h20.853c1.579 0 2.864 1.285 2.864 2.864v6.214z"></path>
    <path fill="#fff" d="M16 12.060c-2.537 0-4.601 2.064-4.601 4.601s2.064 4.601 4.601 4.601 4.601-2.064 4.601-4.601c0-2.537-2.064-4.601-4.601-4.601zM25.764 4.137h-2.769c-0.633 0-1.148 0.515-1.148 1.148v2.769c0 0.633 0.515 1.148 1.148 1.148h2.769c0.633 0 1.148-0.515 1.148-1.148v-2.769c0-0.633-0.515-1.148-1.148-1.148z"></path>
  </symbol>

  <symbol id="icon-pinterest" viewBox="0 0 32 32">
    <title>pinterest-logo-1</title>
    <path fill="#fff" d="M28.3 8.898c-0.874-6.324-7.176-9.544-13.9-8.79-5.316 0.596-10.616 4.894-10.836 11.040-0.134 3.752 0.93 6.566 4.5 7.358 1.546-2.736-0.498-3.334-0.818-5.316-1.31-8.1 9.344-13.632 14.924-7.972 3.864 3.92 1.318 15.972-4.906 14.718-5.962-1.196 2.92-10.79-1.838-12.672-3.868-1.532-5.922 4.68-4.088 7.768-1.076 5.31-3.392 10.31-2.454 16.968 3.040-2.208 4.066-6.43 4.906-10.836 1.528 0.93 2.346 1.892 4.294 2.042 7.184 0.558 11.202-7.172 10.216-14.308z"></path>
  </symbol>

  <symbol id="icon-twitter" viewBox="0 0 32 32">
    <title>twitter-1</title>
    <path fill="#fff" d="M11.938 29.128c-1.384 0-2.808-0.112-4.241-0.337-2.524-0.396-5.078-1.716-5.801-2.111l-1.896-1.037 2.053-0.675c2.244-0.738 3.609-1.196 5.299-1.912-1.692-0.819-2.996-2.293-3.624-4.198l-0.478-1.45 0.392 0.060c-0.371-0.374-0.665-0.754-0.892-1.1-0.808-1.228-1.236-2.728-1.145-4.014l0.090-1.265 0.758 0.293c-0.32-0.604-0.551-1.248-0.686-1.924-0.331-1.647-0.054-3.398 0.78-4.928l0.66-1.211 0.883 1.060c2.791 3.353 6.327 5.342 10.523 5.924-0.171-1.181-0.043-2.322 0.382-3.344 0.495-1.19 1.375-2.199 2.545-2.918 1.299-0.799 2.875-1.186 4.437-1.090 1.657 0.102 3.161 0.723 4.356 1.797 0.584-0.152 1.013-0.313 1.594-0.532 0.35-0.132 0.746-0.281 1.242-0.452l1.828-0.63-1.192 3.405c0.079-0.007 0.16-0.012 0.244-0.016l1.952-0.088-1.154 1.577c-0.066 0.090-0.083 0.116-0.106 0.151-0.093 0.14-0.209 0.314-1.792 2.429-0.396 0.53-0.595 1.219-0.558 1.942 0.14 2.748-0.197 5.234-1.003 7.39-0.762 2.039-1.943 3.789-3.51 5.2-1.939 1.746-4.411 2.942-7.349 3.553-1.441 0.3-2.988 0.45-4.59 0.45z"></path>
  </symbol>
</defs>
</svg>
